<svg xmlns="http://www.w3.org/2000/svg" viewBox="0 0 71.65 71.65"><defs><style>.cls-1{fill:none;stroke:#000;stroke-linecap:round;stroke-linejoin:round;stroke-width:4px;}</style></defs><g id="Warstwa_2" data-name="Warstwa 2"><g id="OBJECTS"><path d="M14.51,26a16.53,16.53,0,0,1,1.79-5.64c2.42-3.95,6.21-5.46,10.57-5.57,5.95-.15,11.92-.14,17.87,0,4,.1,7.64,1.43,10.1,4.93a13.12,13.12,0,0,1,2.21,7.51c.09,5.72.13,11.45,0,17.17C56.94,49,55.34,53,51,55.3a13.69,13.69,0,0,1-6.41,1.58c-5.88.06-11.76.12-17.63,0-4.41-.1-8.24-1.59-10.69-5.59a16.41,16.41,0,0,1-1.79-5.63Zm21.33-7.18c-2.92,0-5.84-.05-8.76,0C22.52,19,19.72,21.1,18.89,25a12.26,12.26,0,0,0-.31,2.55c0,5.53-.11,11.06,0,16.58s2.89,8.44,8.2,8.64c6,.22,12,.2,18,0,4.42-.14,7-2.27,7.89-6.09a10.44,10.44,0,0,0,.3-2.08c0-6.3.38-12.61-.19-18.9a7.12,7.12,0,0,0-6.55-6.67C42.77,18.58,39.3,18.91,35.84,18.84Z"/><path d="M46.82,35.91a11,11,0,1,1-11-11A11.07,11.07,0,0,1,46.82,35.91Zm-4.09-.06a7,7,0,1,0-7,6.86A6.94,6.94,0,0,0,42.73,35.85Z"/><path d="M47.12,22a2.67,2.67,0,0,1,2.7,2.63,2.69,2.69,0,0,1-5.37,0A2.65,2.65,0,0,1,47.12,22Z"/><rect class="cls-1" x="2" y="2" width="67.65" height="67.65" rx="12.61"/></g></g></svg>